<?xml version="1.0" encoding="UTF-8" standalone="no"?>
<!-- Created with Inkscape (http://www.inkscape.org/) -->

<svg
   width="47.554001mm"
   height="54.208752mm"
   viewBox="0 0 48.533852 55.325725"
   version="1.1"
   id="svg1"
   xml:space="preserve"
   xmlns="http://www.w3.org/2000/svg"
   xmlns:svg="http://www.w3.org/2000/svg"><defs
     id="defs1" /><g
     id="layer1"
     transform="translate(-115.1196,-52.163016)"><path
       style="fill:#5d3b21;fill-opacity:1"
       d="m 144.53842,107.32477 c -9.49663,-1.22546 -17.499,-5.1835 -21.52193,-10.64492 -2.20495,-2.99338 -3.72434,-6.46734 -4.32538,-9.8896 -0.25659,-1.46102 -0.25766,-4.46448 -0.002,-5.89064 0.25145,-1.40314 0.66624,-2.81574 1.10738,-3.77118 0.20285,-0.43936 0.36883,-0.82292 0.36883,-0.85235 0,-0.0294 -0.20672,-0.025 -0.45937,0.01 -0.66533,0.0917 -1.7963,0.58618 -3.25053,1.42118 -0.7004,0.40215 -1.2971,0.70753 -1.32602,0.67861 -0.0918,-0.0918 0.47568,-1.47164 1.09717,-2.6678 1.91528,-3.68626 6.65715,-8.2479 12.07302,-11.61415 0.46119,-0.28666 0.86964,-0.57153 0.90766,-0.63304 0.11303,-0.1829 -2.37292,-0.0203 -3.56851,0.23341 -0.58615,0.12438 -1.14304,0.22615 -1.23753,0.22615 -0.33594,0 1.87217,-1.8438 3.44881,-2.8798 3.06854,-2.01633 6.7005,-3.28633 10.60444,-3.70809 2.11297,-0.22827 5.20195,-0.0807 7.2705,0.34739 l 0.64602,0.13369 0.26555,-0.53387 c 0.4871,-0.97931 2.59537,-2.83271 5.21648,-4.58585 0.91459,-0.61172 1.1578,-0.6932 0.90148,-0.30201 -0.17305,0.26411 -0.52228,1.76103 -0.64457,2.76284 l -0.0712,0.58366 0.61708,-0.56399 c 0.71318,-0.6518 1.88062,-1.47038 1.88062,-1.31864 0,0.0569 -0.0839,0.4113 -0.18638,0.78764 -0.25553,0.93816 -0.25097,3.95785 0.009,5.81831 0.16658,1.1931 0.22577,1.39529 0.50627,1.72936 1.72798,2.05798 4.02211,6.85768 5.97749,12.50586 0.42007,1.2134 0.62401,1.61859 1.3617,2.70548 1.15563,1.70267 1.42974,2.47556 1.44764,4.08185 0.0106,0.94861 -0.0348,1.34318 -0.2246,1.95202 -0.42335,1.35822 -0.96322,1.89471 -2.56793,2.55185 -0.80198,0.32842 -0.95481,0.35431 -2.10766,0.35703 -1.15982,0.003 -1.27634,-0.0167 -1.74156,-0.29017 -0.89555,-0.52648 -1.52463,-1.44956 -1.89451,-2.77995 -0.15519,-0.55819 -0.22715,-0.6698 -0.46258,-0.71745 -1.66134,-0.33624 -3.2245,-1.04535 -4.67756,-2.12195 -1.07566,-0.79696 -2.8738,-2.56752 -3.61485,-3.55941 l -0.53566,-0.71697 -0.31898,0.16557 c -0.62647,0.32516 -1.58373,1.15958 -2.06541,1.80035 -0.64376,0.85639 -0.8438,1.26466 -1.16832,2.38452 -1.02738,3.54526 0.23255,8.65399 3.23916,13.13414 1.72602,2.57192 2.20596,4.01923 2.29517,6.92136 0.0689,2.24086 -0.16798,4.21812 -0.74082,6.18396 l -0.2126,0.72957 -0.61691,-0.0122 c -0.3393,-0.007 -1.10329,-0.0749 -1.69776,-0.15162 z"
       id="path1" /><circle
       style="fill:#ed1e1e;fill-opacity:1;stroke-width:0.0575167"
       id="path2"
       cx="153.86246"
       cy="68.846199"
       r="1.65" /></g></svg>
